<?xml version="1.0" encoding="utf-8" ?>
<!DOCTYPE svg PUBLIC "-//W3C//DTD SVG 1.1//EN" "http://www.w3.org/Graphics/SVG/1.1/DTD/svg11.dtd">
<svg height="436" version="1.1" width="1540" xmlns="http://www.w3.org/2000/svg">
<rect fill="none" height="39" stroke="#000000" stroke-width="1" width="344" x="526" y="14"/>
<text font-family="Dialog" font-size="24" x="543" y="39">
Transaction management</text>
<polygon fill="#ffffc8" points="14,86 342,86 352,96 352,421 14,421 14,86" stroke="#ffffc8" stroke-width="1"/>
<polyline fill="none" points="14,86 342,86 352,96 352,421 14,421 14,86" stroke="#000000" stroke-width="1"/>
<polygon fill="#ffffc8" points="342,86 352,96 342,96 342,86" stroke="#ffffc8" stroke-width="1"/>
<polyline fill="none" points="342,86 352,96 342,96 342,86" stroke="#000000" stroke-width="1"/>
<text font-family="Dialog" font-size="12" x="17" y="101">
Django's default behavior is to run in autocommit</text>
<text font-family="Dialog" font-size="12" x="17" y="116">
mode. Each query is immidietly committed to the</text>
<text font-family="Dialog" font-size="12" x="17" y="131">
database, unless transaction is active.</text>
<text font-family="Dialog" font-size="12" x="17" y="161">
Django uses transactions or savepoints to guaran-</text>
<text font-family="Dialog" font-size="12" x="17" y="176">
tee the integrity of ORM operations.</text>
<text font-family="Dialog" font-size="12" x="17" y="206">
A common way to handle transaction on the web</text>
<text font-family="Dialog" font-size="12" x="17" y="221">
is to wrap each request in a transaction. Set</text>
<text font-family="Dialog" font-size="12" x="17" y="236">
"ATOMIC_REQUEST = True" in each configuration</text>
<text font-family="Dialog" font-size="12" x="17" y="251">
of the database for which that behavior required.</text>
<text font-family="Dialog" font-size="12" x="17" y="281">
Before calling a view function, Django starts a</text>
<text font-family="Dialog" font-size="12" x="17" y="296">
transaction, If the response is produced successfully</text>
<text font-family="Dialog" font-size="12" x="17" y="311">
Django commits the transaction. Subtransactions can</text>
<text font-family="Dialog" font-size="12" x="17" y="326">
be performed by using the savepoints in view code,</text>
<text font-family="Dialog" font-size="12" x="17" y="341">
with atomic() context manager method.</text>
<text font-family="Dialog" font-size="12" x="17" y="371">
Not best practice in case of the traffic increase.</text>
<text font-family="Dialog" font-size="12" x="17" y="401">
Wrapps all views functions in "atomic()" decorator.</text>
<polygon fill="#ffffc8" points="382,94 719,94 729,104 729,384 382,384 382,94" stroke="#ffffc8" stroke-width="1"/>
<polyline fill="none" points="382,94 719,94 729,104 729,384 382,384 382,94" stroke="#000000" stroke-width="1"/>
<polygon fill="#ffffc8" points="719,94 729,104 719,104 719,94" stroke="#ffffc8" stroke-width="1"/>
<polyline fill="none" points="719,94 729,104 719,104 719,94" stroke="#000000" stroke-width="1"/>
<text font-family="Dialog" font-size="12" x="385" y="109">
Controlling transactions explicitly.</text>
<text font-family="Dialog" font-size="12" x="385" y="139">
atomic(using=None, savepoint=None) - allows to </text>
<text font-family="Dialog" font-size="12" x="385" y="154">
create a block of code within which the atomicity on</text>
<text font-family="Dialog" font-size="12" x="385" y="169">
the database is guatanteed. If code is successfully</text>
<text font-family="Dialog" font-size="12" x="385" y="184">
commited, the changes are commited to the database.</text>
<text font-family="Dialog" font-size="12" x="385" y="199">
If there is an exception, the changes are rolled back.</text>
<text font-family="Dialog" font-size="12" x="385" y="229">
atomic is usable as decorator or context manager.</text>
<text font-family="Dialog" font-size="12" x="385" y="259">
from django.db import transaction</text>
<text font-family="Dialog" font-size="12" x="385" y="289">
@transaction.atomic</text>
<text font-family="Dialog" font-size="12" x="385" y="304">
def foo(request):</text>
<text font-family="Dialog" font-size="12" x="385" y="319">
    do_staff()</text>
<text font-family="Dialog" font-size="12" x="385" y="349">
def foo_context_manager(request):</text>
<text font-family="Dialog" font-size="12" x="385" y="364">
    with transaction.atomic():</text>
<text font-family="Dialog" font-size="12" x="385" y="379">
        do_staff()</text>
<polygon fill="#ffffc8" points="782,102 1106,102 1116,112 1116,189 782,189 782,102" stroke="#ffffc8" stroke-width="1"/>
<polyline fill="none" points="782,102 1106,102 1116,112 1116,189 782,189 782,102" stroke="#000000" stroke-width="1"/>
<polygon fill="#ffffc8" points="1106,102 1116,112 1106,112 1106,102" stroke="#ffffc8" stroke-width="1"/>
<polyline fill="none" points="1106,102 1116,112 1106,112 1106,102" stroke="#000000" stroke-width="1"/>
<text font-family="Dialog" font-size="12" x="785" y="117">
Deactiovation transaction manager.</text>
<text font-family="Dialog" font-size="12" x="785" y="147">
"AUTOCOMMIT = False" - totally disabled transaction</text>
<text font-family="Dialog" font-size="12" x="785" y="162">
manager. This requires to commit all transaction</text>
<text font-family="Dialog" font-size="12" x="785" y="177">
explicitly.</text>
<polygon fill="#ffffc8" points="774,206 1162,206 1172,216 1172,406 774,406 774,206" stroke="#ffffc8" stroke-width="1"/>
<polyline fill="none" points="774,206 1162,206 1172,216 1172,406 774,406 774,206" stroke="#000000" stroke-width="1"/>
<polygon fill="#ffffc8" points="1162,206 1172,216 1162,216 1162,206" stroke="#ffffc8" stroke-width="1"/>
<polyline fill="none" points="1162,206 1172,216 1162,216 1162,206" stroke="#000000" stroke-width="1"/>
<text font-family="Dialog" font-size="12" x="777" y="221">
Performing actions after commit.</text>
<text font-family="Dialog" font-size="12" x="777" y="251">
on_commit(function, using=None) - register the callback</text>
<text font-family="Dialog" font-size="12" x="777" y="266">
function that should be executed after transaction is</text>
<text font-family="Dialog" font-size="12" x="777" y="281">
successfully commited.</text>
<text font-family="Dialog" font-size="12" x="777" y="311">
Savepoints (i.e. nested atomic() blocks) - an on_commit()</text>
<text font-family="Dialog" font-size="12" x="777" y="326">
callable registered after a savepoint will be called after the</text>
<text font-family="Dialog" font-size="12" x="777" y="341">
outer transaction is commited.</text>
<text font-family="Dialog" font-size="12" x="777" y="371">
A savepoints is a marker within a transaction that enables to</text>
<text font-family="Dialog" font-size="12" x="777" y="386">
roll back part of transaction, rather then all transaction.</text>
<polygon fill="#ffffc8" points="1214,78 1515,78 1525,88 1525,421 1214,421 1214,78" stroke="#ffffc8" stroke-width="1"/>
<polyline fill="none" points="1214,78 1515,78 1525,88 1525,421 1214,421 1214,78" stroke="#000000" stroke-width="1"/>
<polygon fill="#ffffc8" points="1515,78 1525,88 1515,88 1515,78" stroke="#ffffc8" stroke-width="1"/>
<polyline fill="none" points="1515,78 1525,88 1515,88 1515,78" stroke="#000000" stroke-width="1"/>
<text font-family="Dialog" font-size="12" x="1217" y="93">
Low-level API</text>
<text font-family="Dialog" font-size="12" x="1217" y="123">
Always perfotm atomic() if possible!!!!!!!!!!!!!!</text>
<text font-family="Dialog" font-size="12" x="1217" y="168">
Autocommit is initially turned on. If it turned off,</text>
<text font-family="Dialog" font-size="12" x="1217" y="183">
Django won't help.</text>
<text font-family="Dialog" font-size="12" x="1217" y="198">
get_autocommit(using=None)</text>
<text font-family="Dialog" font-size="12" x="1217" y="213">
get_autocommit(autocommit, using=None)</text>
<text font-family="Dialog" font-size="12" x="1217" y="228">
using - the name of database.</text>
<text font-family="Dialog" font-size="12" x="1217" y="258">
Transactions</text>
<text font-family="Dialog" font-size="12" x="1217" y="273">
During transaction may be used</text>
<text font-family="Dialog" font-size="12" x="1217" y="288">
commit(using=None)</text>
<text font-family="Dialog" font-size="12" x="1217" y="303">
rollback(using=None)</text>
<text font-family="Dialog" font-size="12" x="1217" y="333">
Savepoints</text>
<text font-family="Dialog" font-size="12" x="1217" y="348">
savepoint(using-None) - returns SID</text>
<text font-family="Dialog" font-size="12" x="1217" y="363">
sacepoint_commit(SID, using=None)</text>
<text font-family="Dialog" font-size="12" x="1217" y="378">
savepoint_rollback(SID, using=None)</text>
<text font-family="Dialog" font-size="12" x="1217" y="393">
clean_savepoint(using=None)</text>
</svg>
