<?xml version="1.0" encoding="utf-8" ?>
<!DOCTYPE svg PUBLIC "-//W3C//DTD SVG 1.1//EN" "http://www.w3.org/Graphics/SVG/1.1/DTD/svg11.dtd">
<svg height="836" version="1.1" width="1108" xmlns="http://www.w3.org/2000/svg">
<rect fill="#c8c8c8" height="808" stroke="#c8c8c8" stroke-width="1" width="1080" x="14" y="14"/>
<rect fill="none" height="808" stroke="#000000" stroke-width="1" width="1080" x="14" y="14"/>
<rect fill="none" height="16" stroke="#000000" stroke-width="1" width="31" x="38" y="54"/>
<rect fill="none" height="23" stroke="#ffffff" stroke-width="1" width="318" x="342" y="22"/>
<text font-family="Dialog" font-size="18" x="343" y="40">
Creating and settings of the project</text>
<polygon fill="#ffffc8" points="22,22 243,22 253,32 253,301 22,301 22,22" stroke="#ffffc8" stroke-width="1"/>
<polyline fill="none" points="22,22 243,22 253,32 253,301 22,301 22,22" stroke="#000000" stroke-width="1"/>
<polygon fill="#ffffc8" points="243,22 253,32 243,32 243,22" stroke="#ffffc8" stroke-width="1"/>
<polyline fill="none" points="243,22 253,32 243,32 243,22" stroke="#000000" stroke-width="1"/>
<text font-family="Dialog" font-size="12" x="25" y="37">
Preparation actions:</text>
<text font-family="Dialog" font-size="12" x="25" y="67">
1) Install Python interpreter</text>
<text font-family="Dialog" font-size="12" x="25" y="97">
2) Install Django framework</text>
<text font-family="Dialog" font-size="12" x="25" y="127">
3) Install DBMS</text>
<text font-family="Dialog" font-size="12" x="25" y="142">
- SQLite used as default</text>
<text font-family="Dialog" font-size="12" x="25" y="157">
- MySQL install client required</text>
<text font-family="Dialog" font-size="12" x="25" y="172">
pip install mysqlclient</text>
<text font-family="Dialog" font-size="12" x="25" y="187">
- PostgreSQL install client required</text>
<text font-family="Dialog" font-size="12" x="25" y="202">
pip install psycorg2</text>
<text font-family="Dialog" font-size="12" x="25" y="217">
- Oracle</text>
<text font-family="Dialog" font-size="12" x="25" y="232">
- Microsoft SQL Server</text>
<text font-family="Dialog" font-size="12" x="25" y="247">
- Firebird</text>
<text font-family="Dialog" font-size="12" x="25" y="262">
- IBM DB2</text>
<text font-family="Dialog" font-size="12" x="25" y="277">
- SAP SQL Anywhere</text>
<polygon fill="#ffffc8" points="46,350 215,350 225,360 225,469 46,469 46,350" stroke="#ffffc8" stroke-width="1"/>
<polyline fill="none" points="46,350 215,350 225,360 225,469 46,469 46,350" stroke="#000000" stroke-width="1"/>
<polygon fill="#ffffc8" points="215,350 225,360 215,360 215,350" stroke="#ffffc8" stroke-width="1"/>
<polyline fill="none" points="215,350 225,360 215,360 215,350" stroke="#000000" stroke-width="1"/>
<text font-family="Dialog" font-size="12" x="49" y="365">
Creating Django project:</text>
<text font-family="Dialog" font-size="12" x="49" y="395">
use command:</text>
<text font-family="Dialog" font-size="12" x="49" y="425">
django-admin startproject</text>
<text font-family="Dialog" font-size="12" x="49" y="440">
&lt;project name&gt;</text>
<text font-family="Dialog" font-size="12" x="49" y="455">
[&lt;path to project folder&gt;]</text>
<line fill="#333399" stroke="#333399" stroke-width="1" x1="134" x2="134" y1="301" y2="306"/>
<line fill="#333399" stroke="#333399" stroke-width="1" x1="134" x2="134" y1="311" y2="316"/>
<line fill="#333399" stroke="#333399" stroke-width="1" x1="134" x2="134" y1="321" y2="326"/>
<line fill="#333399" stroke="#333399" stroke-width="1" x1="134" x2="134" y1="331" y2="336"/>
<line fill="#333399" stroke="#333399" stroke-width="1" x1="134" x2="134" y1="341" y2="346"/>
<polygon fill="#ffffc8" points="22,550 309,550 319,560 319,810 22,810 22,550" stroke="#ffffc8" stroke-width="1"/>
<polyline fill="none" points="22,550 309,550 319,560 319,810 22,810 22,550" stroke="#000000" stroke-width="1"/>
<polygon fill="#ffffc8" points="309,550 319,560 309,560 309,550" stroke="#ffffc8" stroke-width="1"/>
<polyline fill="none" points="309,550 319,560 309,560 309,550" stroke="#000000" stroke-width="1"/>
<text font-family="Dialog" font-size="12" x="25" y="565">
Project settings:</text>
<text font-family="Dialog" font-size="12" x="25" y="595">
BASE_DIR - sets path to project</text>
<text font-family="Dialog" font-size="12" x="25" y="625">
DEBUG - shows mode of site work</text>
<text font-family="Dialog" font-size="12" x="25" y="655">
DEFAULT_CHARSET - utf-8 as default</text>
<text font-family="Dialog" font-size="12" x="25" y="685">
FILE_CHARSET - text files encoding,</text>
<text font-family="Dialog" font-size="12" x="25" y="700">
for templates for example, utf-8 as</text>
<text font-family="Dialog" font-size="12" x="25" y="715">
default.</text>
<text font-family="Dialog" font-size="12" x="25" y="745">
ROOT_URLCONF - path to module, where </text>
<text font-family="Dialog" font-size="12" x="25" y="760">
stored  route of project level in string type.</text>
<text font-family="Dialog" font-size="12" x="25" y="790">
SECRET_KEY - empty row as default. Used bvy</text>
<text font-family="Dialog" font-size="12" x="25" y="805">
Django core and subsystem.</text>
<line fill="#000000" stroke="#000000" stroke-width="1" x1="134" x2="134" y1="470" y2="475"/>
<line fill="#000000" stroke="#000000" stroke-width="1" x1="134" x2="134" y1="480" y2="485"/>
<line fill="#000000" stroke="#000000" stroke-width="1" x1="134" x2="134" y1="490" y2="495"/>
<line fill="#000000" stroke="#000000" stroke-width="1" x1="134" x2="134" y1="500" y2="505"/>
<line fill="#000000" stroke="#000000" stroke-width="1" x1="134" x2="134" y1="510" y2="515"/>
<line fill="#000000" stroke="#000000" stroke-width="1" x1="134" x2="134" y1="520" y2="525"/>
<line fill="#000000" stroke="#000000" stroke-width="1" x1="134" x2="134" y1="530" y2="535"/>
<line fill="#000000" stroke="#000000" stroke-width="1" x1="134" x2="134" y1="540" y2="545"/>
<polygon fill="#ffffc8" points="310,54 611,54 621,64 621,314 310,314 310,54" stroke="#ffffc8" stroke-width="1"/>
<polyline fill="none" points="310,54 611,54 621,64 621,314 310,314 310,54" stroke="#000000" stroke-width="1"/>
<polygon fill="#ffffc8" points="611,54 621,64 611,64 611,54" stroke="#ffffc8" stroke-width="1"/>
<polyline fill="none" points="611,54 621,64 611,64 611,54" stroke="#000000" stroke-width="1"/>
<text font-family="Dialog" font-size="12" x="313" y="69">
Database parameters:</text>
<text font-family="Dialog" font-size="12" x="313" y="99">
DATABASES - {KEY - DB alias : </text>
<text font-family="Dialog" font-size="12" x="313" y="114">
VALUE - {KEY - dbParam : </text>
<text font-family="Dialog" font-size="12" x="313" y="129">
VALUE - dbParam}}</text>
<text font-family="Dialog" font-size="12" x="313" y="159">
dbParam:</text>
<text font-family="Dialog" font-size="12" x="313" y="189">
ENGINE - format of the used DB</text>
<text font-family="Dialog" font-size="12" x="313" y="204">
NAME - path to file of DB</text>
<text font-family="Dialog" font-size="12" x="313" y="219">
TIME_ZONE - time zone for values</text>
<text font-family="Dialog" font-size="12" x="313" y="234">
HOST - addres of computer</text>
<text font-family="Dialog" font-size="12" x="313" y="249">
PORT - TCP port number</text>
<text font-family="Dialog" font-size="12" x="313" y="264">
USER - user name</text>
<text font-family="Dialog" font-size="12" x="313" y="279">
PASSWORD - user pasword</text>
<text font-family="Dialog" font-size="12" x="313" y="294">
CON_MAX_AGE - max time of connection with BD</text>
<text font-family="Dialog" font-size="12" x="313" y="309">
OPTIONS - additional parameters</text>
<line fill="#000000" stroke="#000000" stroke-width="1" x1="278" x2="278" y1="550" y2="545"/>
<line fill="#000000" stroke="#000000" stroke-width="1" x1="278" x2="278" y1="540" y2="535"/>
<line fill="#000000" stroke="#000000" stroke-width="1" x1="278" x2="278" y1="530" y2="525"/>
<line fill="#000000" stroke="#000000" stroke-width="1" x1="278" x2="278" y1="520" y2="515"/>
<line fill="#000000" stroke="#000000" stroke-width="1" x1="278" x2="278" y1="510" y2="505"/>
<line fill="#000000" stroke="#000000" stroke-width="1" x1="278" x2="278" y1="500" y2="495"/>
<line fill="#000000" stroke="#000000" stroke-width="1" x1="278" x2="278" y1="490" y2="485"/>
<line fill="#000000" stroke="#000000" stroke-width="1" x1="278" x2="278" y1="480" y2="475"/>
<line fill="#000000" stroke="#000000" stroke-width="1" x1="278" x2="278" y1="470" y2="465"/>
<line fill="#000000" stroke="#000000" stroke-width="1" x1="278" x2="278" y1="460" y2="455"/>
<line fill="#000000" stroke="#000000" stroke-width="1" x1="278" x2="278" y1="450" y2="445"/>
<line fill="#000000" stroke="#000000" stroke-width="1" x1="278" x2="278" y1="440" y2="435"/>
<line fill="#000000" stroke="#000000" stroke-width="1" x1="278" x2="278" y1="430" y2="425"/>
<line fill="#000000" stroke="#000000" stroke-width="1" x1="278" x2="278" y1="420" y2="415"/>
<line fill="#000000" stroke="#000000" stroke-width="1" x1="278" x2="278" y1="410" y2="405"/>
<line fill="#000000" stroke="#000000" stroke-width="1" x1="278" x2="278" y1="400" y2="395"/>
<line fill="#000000" stroke="#000000" stroke-width="1" x1="278" x2="278" y1="390" y2="385"/>
<line fill="#000000" stroke="#000000" stroke-width="1" x1="278" x2="278" y1="380" y2="375"/>
<line fill="#000000" stroke="#000000" stroke-width="1" x1="278" x2="278" y1="370" y2="365"/>
<line fill="#000000" stroke="#000000" stroke-width="1" x1="278" x2="278" y1="360" y2="355"/>
<line fill="#000000" stroke="#000000" stroke-width="1" x1="278" x2="278" y1="350" y2="345"/>
<line fill="#000000" stroke="#000000" stroke-width="1" x1="278" x2="278" y1="340" y2="335"/>
<line fill="#000000" stroke="#000000" stroke-width="1" x1="278" x2="278" y1="330" y2="325"/>
<line fill="#000000" stroke="#000000" stroke-width="1" x1="278" x2="278" y1="320" y2="315"/>
<line fill="#000000" stroke="#000000" stroke-width="1" x1="278" x2="278" y1="310" y2="305"/>
<line fill="#000000" stroke="#000000" stroke-width="1" x1="278" x2="278" y1="300" y2="295"/>
<line fill="#000000" stroke="#000000" stroke-width="1" x1="278" x2="278" y1="290" y2="285"/>
<line fill="#000000" stroke="#000000" stroke-width="1" x1="278" x2="278" y1="280" y2="275"/>
<line fill="#000000" stroke="#000000" stroke-width="1" x1="278" x2="278" y1="270" y2="265"/>
<line fill="#000000" stroke="#000000" stroke-width="1" x1="278" x2="278" y1="260" y2="255"/>
<line fill="#000000" stroke="#000000" stroke-width="1" x1="278" x2="278" y1="250" y2="245"/>
<line fill="#000000" stroke="#000000" stroke-width="1" x1="278" x2="278" y1="240" y2="235"/>
<line fill="#000000" stroke="#000000" stroke-width="1" x1="278" x2="278" y1="230" y2="225"/>
<line fill="#000000" stroke="#000000" stroke-width="1" x1="278" x2="278" y1="220" y2="215"/>
<line fill="#000000" stroke="#000000" stroke-width="1" x1="278" x2="278" y1="210" y2="205"/>
<line fill="#000000" stroke="#000000" stroke-width="1" x1="278" x2="278" y1="200" y2="195"/>
<line fill="#000000" stroke="#000000" stroke-width="1" x1="278" x2="278" y1="190" y2="185"/>
<line fill="#000000" stroke="#000000" stroke-width="1" x1="278" x2="278" y1="180" y2="175"/>
<line fill="#000000" stroke="#000000" stroke-width="1" x1="278" x2="278" y1="170" y2="165"/>
<line fill="#000000" stroke="#000000" stroke-width="1" x1="278" x2="278" y1="160" y2="155"/>
<line fill="#000000" stroke="#000000" stroke-width="1" x1="278" x2="278" y1="150" y2="145"/>
<line fill="#000000" stroke="#000000" stroke-width="1" x1="278" x2="278" y1="140" y2="135"/>
<line fill="#000000" stroke="#000000" stroke-width="1" x1="278" x2="278" y1="130" y2="125"/>
<line fill="#000000" stroke="#000000" stroke-width="1" x1="278" x2="278" y1="120" y2="115"/>
<line fill="#000000" stroke="#000000" stroke-width="1" x1="278" x2="278" y1="110" y2="105"/>
<line fill="#000000" stroke="#000000" stroke-width="1" x1="278" x2="278" y1="100" y2="95"/>
<line fill="#000000" stroke="#000000" stroke-width="1" x1="278" x2="278" y1="90" y2="85"/>
<line fill="#000000" stroke="#000000" stroke-width="1" x1="278" x2="278" y1="80" y2="75"/>
<line fill="#000000" stroke="#000000" stroke-width="1" x1="278" x2="278" y1="70" y2="65"/>
<line fill="#000000" stroke="#000000" stroke-width="1" x1="278" x2="283" y1="62" y2="62"/>
<line fill="#000000" stroke="#000000" stroke-width="1" x1="288" x2="293" y1="62" y2="62"/>
<line fill="#000000" stroke="#000000" stroke-width="1" x1="298" x2="303" y1="62" y2="62"/>
<line fill="#000000" stroke="#000000" stroke-width="1" x1="308" x2="310" y1="62" y2="62"/>
<polygon fill="#ffffc8" points="326,414 626,414 636,424 636,734 326,734 326,414" stroke="#ffffc8" stroke-width="1"/>
<polyline fill="none" points="326,414 626,414 636,424 636,734 326,734 326,414" stroke="#000000" stroke-width="1"/>
<polygon fill="#ffffc8" points="626,414 636,424 626,424 626,414" stroke="#ffffc8" stroke-width="1"/>
<polyline fill="none" points="626,414 636,424 626,424 626,414" stroke="#000000" stroke-width="1"/>
<text font-family="Dialog" font-size="12" x="329" y="429">
List of registered applications:</text>
<text font-family="Dialog" font-size="12" x="329" y="459">
INSTALLED_APPS - list of applications</text>
<text font-family="Dialog" font-size="12" x="329" y="474">
registered in project. It is empty as default, </text>
<text font-family="Dialog" font-size="12" x="329" y="489">
but after creating project it consist of</text>
<text font-family="Dialog" font-size="12" x="329" y="504">
stndard applications.</text>
<text font-family="Dialog" font-size="12" x="329" y="534">
django.contrid.admin - administrative website</text>
<text font-family="Dialog" font-size="12" x="329" y="564">
django.contrid.auth - list of all modules</text>
<text font-family="Dialog" font-size="12" x="329" y="594">
django.contrid.session - store data in sessions</text>
<text font-family="Dialog" font-size="12" x="329" y="609">
on server side.</text>
<text font-family="Dialog" font-size="12" x="329" y="639">
django.contrid.messages - shows popup</text>
<text font-family="Dialog" font-size="12" x="329" y="654">
messages.</text>
<text font-family="Dialog" font-size="12" x="329" y="684">
django.contrid.staticfiles - realize handling </text>
<text font-family="Dialog" font-size="12" x="329" y="699">
of static files.</text>
<text font-family="Dialog" font-size="12" x="329" y="729">
Any of thuse can be removed as unusing.</text>
<line fill="#000000" stroke="#000000" stroke-width="1" x1="454" x2="454" y1="315" y2="320"/>
<line fill="#000000" stroke="#000000" stroke-width="1" x1="454" x2="454" y1="325" y2="330"/>
<line fill="#000000" stroke="#000000" stroke-width="1" x1="454" x2="454" y1="335" y2="340"/>
<line fill="#000000" stroke="#000000" stroke-width="1" x1="454" x2="454" y1="345" y2="350"/>
<line fill="#000000" stroke="#000000" stroke-width="1" x1="454" x2="454" y1="355" y2="360"/>
<line fill="#000000" stroke="#000000" stroke-width="1" x1="454" x2="454" y1="365" y2="370"/>
<line fill="#000000" stroke="#000000" stroke-width="1" x1="454" x2="454" y1="375" y2="380"/>
<line fill="#000000" stroke="#000000" stroke-width="1" x1="454" x2="454" y1="385" y2="390"/>
<line fill="#000000" stroke="#000000" stroke-width="1" x1="454" x2="454" y1="395" y2="400"/>
<line fill="#000000" stroke="#000000" stroke-width="1" x1="454" x2="454" y1="405" y2="410"/>
<polygon fill="#ffffc8" points="670,54 1057,54 1067,64 1067,464 670,464 670,54" stroke="#ffffc8" stroke-width="1"/>
<polyline fill="none" points="670,54 1057,54 1067,64 1067,464 670,464 670,54" stroke="#000000" stroke-width="1"/>
<polygon fill="#ffffc8" points="1057,54 1067,64 1057,64 1057,54" stroke="#ffffc8" stroke-width="1"/>
<polyline fill="none" points="1057,54 1067,64 1057,64 1057,54" stroke="#000000" stroke-width="1"/>
<text font-family="Dialog" font-size="12" x="673" y="69">
List of registered intermediaries:</text>
<text font-family="Dialog" font-size="12" x="673" y="99">
MIDDLEWARE - program module</text>
<text font-family="Dialog" font-size="12" x="673" y="114">
executes pre hadling of clients</text>
<text font-family="Dialog" font-size="12" x="673" y="129">
requests and pass it to the controller,</text>
<text font-family="Dialog" font-size="12" x="673" y="144">
and end handling of response generated</text>
<text font-family="Dialog" font-size="12" x="673" y="159">
from controller. It is empty as default, </text>
<text font-family="Dialog" font-size="12" x="673" y="174">
but after creating project it consist of</text>
<text font-family="Dialog" font-size="12" x="673" y="189">
stndard applications.</text>
<text font-family="Dialog" font-size="12" x="673" y="219">
django.middleware.security.SessionMiddleware -</text>
<text font-family="Dialog" font-size="12" x="673" y="234">
realize additional protection of network attacks.</text>
<text font-family="Dialog" font-size="12" x="673" y="264">
django.contrlib.sessions.middleware.SessionMiddleware -</text>
<text font-family="Dialog" font-size="12" x="673" y="279">
provides sessions work on low level.</text>
<text font-family="Dialog" font-size="12" x="673" y="309">
django.middleware.common.CommonMiddleware - </text>
<text font-family="Dialog" font-size="12" x="673" y="324">
participate in pre handling of queries.</text>
<text font-family="Dialog" font-size="12" x="673" y="354">
django.midldeware.csrf.CsrfViewMiddleware - </text>
<text font-family="Dialog" font-size="12" x="673" y="369">
provides protection of intersite queries in data handling.</text>
<text font-family="Dialog" font-size="12" x="673" y="399">
django.contrlib.masseges.middleware.MessagesMiddleware -</text>
<text font-family="Dialog" font-size="12" x="673" y="414">
provides handling of pop up messages in low level.</text>
<text font-family="Dialog" font-size="12" x="673" y="444">
django.middleware.clickjacking.XFrameOptionsMiddleware -</text>
<text font-family="Dialog" font-size="12" x="673" y="459">
realize additional protection of network attacks.</text>
<line fill="#000000" stroke="#000000" stroke-width="1" x1="637" x2="642" y1="622" y2="622"/>
<line fill="#000000" stroke="#000000" stroke-width="1" x1="647" x2="652" y1="622" y2="622"/>
<line fill="#000000" stroke="#000000" stroke-width="1" x1="654" x2="654" y1="622" y2="617"/>
<line fill="#000000" stroke="#000000" stroke-width="1" x1="654" x2="654" y1="612" y2="607"/>
<line fill="#000000" stroke="#000000" stroke-width="1" x1="654" x2="654" y1="602" y2="597"/>
<line fill="#000000" stroke="#000000" stroke-width="1" x1="654" x2="654" y1="592" y2="587"/>
<line fill="#000000" stroke="#000000" stroke-width="1" x1="654" x2="654" y1="582" y2="577"/>
<line fill="#000000" stroke="#000000" stroke-width="1" x1="654" x2="654" y1="572" y2="567"/>
<line fill="#000000" stroke="#000000" stroke-width="1" x1="654" x2="654" y1="562" y2="557"/>
<line fill="#000000" stroke="#000000" stroke-width="1" x1="654" x2="654" y1="552" y2="547"/>
<line fill="#000000" stroke="#000000" stroke-width="1" x1="654" x2="654" y1="542" y2="537"/>
<line fill="#000000" stroke="#000000" stroke-width="1" x1="654" x2="654" y1="532" y2="527"/>
<line fill="#000000" stroke="#000000" stroke-width="1" x1="654" x2="654" y1="522" y2="517"/>
<line fill="#000000" stroke="#000000" stroke-width="1" x1="654" x2="654" y1="512" y2="507"/>
<line fill="#000000" stroke="#000000" stroke-width="1" x1="654" x2="654" y1="502" y2="497"/>
<line fill="#000000" stroke="#000000" stroke-width="1" x1="654" x2="654" y1="492" y2="487"/>
<line fill="#000000" stroke="#000000" stroke-width="1" x1="654" x2="654" y1="482" y2="477"/>
<line fill="#000000" stroke="#000000" stroke-width="1" x1="654" x2="654" y1="472" y2="467"/>
<line fill="#000000" stroke="#000000" stroke-width="1" x1="654" x2="654" y1="462" y2="457"/>
<line fill="#000000" stroke="#000000" stroke-width="1" x1="654" x2="654" y1="452" y2="447"/>
<line fill="#000000" stroke="#000000" stroke-width="1" x1="654" x2="654" y1="442" y2="437"/>
<line fill="#000000" stroke="#000000" stroke-width="1" x1="654" x2="654" y1="432" y2="427"/>
<line fill="#000000" stroke="#000000" stroke-width="1" x1="654" x2="654" y1="422" y2="417"/>
<line fill="#000000" stroke="#000000" stroke-width="1" x1="654" x2="654" y1="412" y2="407"/>
<line fill="#000000" stroke="#000000" stroke-width="1" x1="654" x2="654" y1="402" y2="397"/>
<line fill="#000000" stroke="#000000" stroke-width="1" x1="654" x2="654" y1="392" y2="387"/>
<line fill="#000000" stroke="#000000" stroke-width="1" x1="654" x2="654" y1="382" y2="377"/>
<line fill="#000000" stroke="#000000" stroke-width="1" x1="654" x2="654" y1="372" y2="367"/>
<line fill="#000000" stroke="#000000" stroke-width="1" x1="654" x2="654" y1="362" y2="357"/>
<line fill="#000000" stroke="#000000" stroke-width="1" x1="654" x2="654" y1="352" y2="347"/>
<line fill="#000000" stroke="#000000" stroke-width="1" x1="654" x2="654" y1="342" y2="337"/>
<line fill="#000000" stroke="#000000" stroke-width="1" x1="654" x2="654" y1="332" y2="327"/>
<line fill="#000000" stroke="#000000" stroke-width="1" x1="654" x2="654" y1="322" y2="317"/>
<line fill="#000000" stroke="#000000" stroke-width="1" x1="654" x2="654" y1="312" y2="307"/>
<line fill="#000000" stroke="#000000" stroke-width="1" x1="654" x2="654" y1="302" y2="297"/>
<line fill="#000000" stroke="#000000" stroke-width="1" x1="654" x2="654" y1="292" y2="287"/>
<line fill="#000000" stroke="#000000" stroke-width="1" x1="654" x2="654" y1="282" y2="277"/>
<line fill="#000000" stroke="#000000" stroke-width="1" x1="654" x2="654" y1="272" y2="267"/>
<line fill="#000000" stroke="#000000" stroke-width="1" x1="654" x2="654" y1="262" y2="257"/>
<line fill="#000000" stroke="#000000" stroke-width="1" x1="654" x2="654" y1="252" y2="247"/>
<line fill="#000000" stroke="#000000" stroke-width="1" x1="654" x2="654" y1="242" y2="237"/>
<line fill="#000000" stroke="#000000" stroke-width="1" x1="654" x2="654" y1="232" y2="227"/>
<line fill="#000000" stroke="#000000" stroke-width="1" x1="654" x2="654" y1="222" y2="217"/>
<line fill="#000000" stroke="#000000" stroke-width="1" x1="654" x2="654" y1="212" y2="207"/>
<line fill="#000000" stroke="#000000" stroke-width="1" x1="654" x2="654" y1="202" y2="197"/>
<line fill="#000000" stroke="#000000" stroke-width="1" x1="654" x2="654" y1="192" y2="187"/>
<line fill="#000000" stroke="#000000" stroke-width="1" x1="654" x2="654" y1="182" y2="177"/>
<line fill="#000000" stroke="#000000" stroke-width="1" x1="654" x2="654" y1="172" y2="167"/>
<line fill="#000000" stroke="#000000" stroke-width="1" x1="654" x2="654" y1="162" y2="157"/>
<line fill="#000000" stroke="#000000" stroke-width="1" x1="654" x2="654" y1="152" y2="147"/>
<line fill="#000000" stroke="#000000" stroke-width="1" x1="654" x2="654" y1="142" y2="137"/>
<line fill="#000000" stroke="#000000" stroke-width="1" x1="654" x2="654" y1="132" y2="127"/>
<line fill="#000000" stroke="#000000" stroke-width="1" x1="654" x2="654" y1="122" y2="117"/>
<line fill="#000000" stroke="#000000" stroke-width="1" x1="654" x2="654" y1="112" y2="110"/>
<line fill="#000000" stroke="#000000" stroke-width="1" x1="654" x2="659" y1="110" y2="110"/>
<line fill="#000000" stroke="#000000" stroke-width="1" x1="664" x2="669" y1="110" y2="110"/>
<polygon fill="#ffffc8" points="726,502 990,502 1000,512 1000,807 726,807 726,502" stroke="#ffffc8" stroke-width="1"/>
<polyline fill="none" points="726,502 990,502 1000,512 1000,807 726,807 726,502" stroke="#000000" stroke-width="1"/>
<polygon fill="#ffffc8" points="990,502 1000,512 990,512 990,502" stroke="#ffffc8" stroke-width="1"/>
<polyline fill="none" points="990,502 1000,512 990,512 990,502" stroke="#000000" stroke-width="1"/>
<text font-family="Dialog" font-size="12" x="729" y="517">
Language settings:</text>
<text font-family="Dialog" font-size="12" x="729" y="547">
LANGUAGE_CODE -  language code</text>
<text font-family="Dialog" font-size="12" x="729" y="562">
of system messages of administrative</text>
<text font-family="Dialog" font-size="12" x="729" y="577">
site. LANGUAGE_CODE = 'ru-ru'</text>
<text font-family="Dialog" font-size="12" x="729" y="607">
USE_I18N - if True,  use LANGUAGE_CODE.</text>
<text font-family="Dialog" font-size="12" x="729" y="622">
Otherwise use English.</text>
<text font-family="Dialog" font-size="12" x="729" y="652">
USE_L18N - if True, numbers, date and </text>
<text font-family="Dialog" font-size="12" x="729" y="667">
time will use LANGUAGE_CODE. Otherwise</text>
<text font-family="Dialog" font-size="12" x="729" y="682">
use projects settings.</text>
<text font-family="Dialog" font-size="12" x="729" y="712">
TIME_ZONE - value of time zone in string</text>
<text font-family="Dialog" font-size="12" x="729" y="727">
type.</text>
<text font-family="Dialog" font-size="12" x="729" y="757">
USE_TZ - if True,  stores date and time</text>
<text font-family="Dialog" font-size="12" x="729" y="772">
with use time zone. Otherwise it will store</text>
<text font-family="Dialog" font-size="12" x="729" y="787">
without point of timezone, TIME_ZONE </text>
<text font-family="Dialog" font-size="12" x="729" y="802">
will point to settings.</text>
<line fill="#000000" stroke="#000000" stroke-width="1" x1="854" x2="854" y1="465" y2="470"/>
<line fill="#000000" stroke="#000000" stroke-width="1" x1="854" x2="854" y1="475" y2="480"/>
<line fill="#000000" stroke="#000000" stroke-width="1" x1="854" x2="854" y1="485" y2="490"/>
<line fill="#000000" stroke="#000000" stroke-width="1" x1="854" x2="854" y1="495" y2="500"/>
</svg>
